# xmcd
#
# Track frame offsets: 
#        150
#        13598
#        29031
#        39842
#        53708
#        63700
#        75524
#        90023
#        103707
#        114323
#        129853
#        144979
#        159116
#        177307
#        190274
#        204174
#        216758
#        236245
#
# Disc length: 3324 seconds
#
# Revision: 0
# Processed by: cddbd v1.5.2PL0 Copyright (c) Steve Scherf et al.
# Submitted via: ExactAudioCopy v0.99pb5
#
DISCID=e00cfa12
DTITLE=John Travolta - Slow Dancing
DYEAR=2006
DGENRE=Pop
TTITLE0=Let Her In
TTITLE1=Never
TTITLE2=Rainbows
TTITLE3=Razzamatazz
TTITLE4=I Don't Know What I Like About You Baby
TTITLE5=Big Trouble
TTITLE6=Goodbay Mister Moon
TTITLE7=Baby, I Could Be So Good At Loving You
TTITLE8=It Had To Be You
TTITLE9=Slow Dancing
TTITLE10=Can't Let You Go
TTITLE11=Easy Evil
TTITLE12=Back Doors Crying
TTITLE13=What Would They Say
TTITLE14=Right Time Of The Night
TTITLE15=Moonlight Lady
TTITLE16=Settle Down
TTITLE17=You Set My Dreams To Music
EXTD=
EXTT0=
EXTT1=
EXTT2=
EXTT3=
EXTT4=
EXTT5=
EXTT6=
EXTT7=
EXTT8=
EXTT9=
EXTT10=
EXTT11=
EXTT12=
EXTT13=
EXTT14=
EXTT15=
EXTT16=
EXTT17=
PLAYORDER=
